# xmcd CD database file
#
# Track frame offsets:
#	150
#	19462
#	27964
#	45229
#	65956
#	84330
#	106389
#	129338
#	136989
#	158548
#	180384
#	203738
#	223579
#	243073
#	264864
#	274864
#	289921
#	310499
#	336324
#
# Disc length: 4582 seconds
#
# Revision: 1
# Processed by: cddbd v1.4PL0 Copyright (c) Steve Scherf et al.
# Submitted via: CDex 1.40Release
#
DISCID=0e11e413
DTITLE=Nelly - Nellyville
DYEAR=2002
DGENRE=Rap
TTITLE0=Nellyville
TTITLE1=Gettin It Started - Cedric The Entertainer
TTITLE2=Hot In Herre
TTITLE3=Dem Boyz
TTITLE4=Oh Nelly
TTITLE5=Pimp Juice
TTITLE6=Air Force Ones
TTITLE7=In The Store - Cedric The Entertainer
TTITLE8=On The Grind - King Jacob
TTITLE9=Dilemma - Kelly Rowland
TTITLE10=Splurge
TTITLE11=Work It - Justin Timberlake
TTITLE12=Roc The Mic (Remix) - Freeway and Beanie Sigel
TTITLE13=The Gank
TTITLE14=5000
TTITLE15=Number One
TTITLE16=CG2
TTITLE17=Say Now
TTITLE18=Fuck It Then - Cedric The Entertainer
EXTD=YEAR: 2002 ID3G: 15
EXTT0=
EXTT1=
EXTT2=
EXTT3=
EXTT4=
EXTT5=
EXTT6=
EXTT7=
EXTT8=
EXTT9=
EXTT10=
EXTT11=
EXTT12=
EXTT13=
EXTT14=
EXTT15=
EXTT16=
EXTT17=
EXTT18=
PLAYORDER=
